# xmcd CD database file generated by Grip 3.0.6
# 
# Track frame offsets:
#       150
#       21144
#       38243
#       52014
#       68416
#       84530
#       98422
#       109951
#       127568
#       137930
#       152874
#       167001
# 
# Disc length: 2463 seconds
# 
# Revision: 3
# Processed by: cddbd v1.4PL0 Copyright (c) Steve Scherf et al.
# Submitted via: Grip 3.0.6
# 
DISCID=92099d0c
DTITLE=Soledad - Yo si quiero a mi país
DYEAR=1900
DGENRE=Country
TTITLE0=Yo Si Quiero A Mi País
TTITLE1=El Bahiano
TTITLE2=Como Será
TTITLE3=Mi Consejo
TTITLE4=Luna Mia
TTITLE5=Mi Bien
TTITLE6=Amarraditos
TTITLE7=Corazón Americano
TTITLE8=Un Amigo, Una Flor, Una Estrella
TTITLE9=De La Mano
TTITLE10=El Humahuaqueñio
TTITLE11=Popurri De Candombes
EXTD=
EXTT0=
EXTT1=
EXTT2=
EXTT3=
EXTT4=
EXTT5=
EXTT6=
EXTT7=
EXTT8=
EXTT9=
EXTT10=
EXTT11=
PLAYORDER=
